<svg width="20" height="20" viewBox="0 0 20 20" fill="none" xmlns="http://www.w3.org/2000/svg">
<path d="M5.84764 20C2.6229 20 0 17.3771 0 14.1524V5.84764C0 2.62345 2.6229 0 5.84764 0H14.1524C17.3771 0 20 2.62345 20 5.84764V14.1524C20 17.3771 17.3771 20 14.1524 20H5.84764ZM1.86417 5.84764V14.1524C1.86417 16.3487 3.65129 18.1358 5.84764 18.1358H14.1524C16.3487 18.1358 18.1353 16.3487 18.1353 14.1524V5.84764C18.1353 3.65129 16.3487 1.86417 14.1524 1.86417H5.84764C3.65129 1.86417 1.86417 3.65129 1.86417 5.84764ZM4.83042 10.0003C4.83042 7.1496 7.1496 4.83042 9.99972 4.83042C12.8504 4.83042 15.1696 7.1496 15.1696 10.0003C15.1696 12.8504 12.8504 15.1696 9.99972 15.1696C7.1496 15.1696 4.83042 12.8504 4.83042 10.0003ZM6.69514 10.0003C6.69514 11.8226 8.17743 13.3049 9.99972 13.3049C11.8226 13.3049 13.3049 11.8226 13.3049 10.0003C13.3049 8.17743 11.8226 6.69458 9.99972 6.69458C8.17743 6.69458 6.69514 8.17743 6.69514 10.0003ZM14.0976 4.66628C14.0976 3.97789 14.6554 3.42015 15.3438 3.42015C16.0322 3.42015 16.5899 3.97789 16.5899 4.66628C16.5899 5.35466 16.0322 5.9124 15.3438 5.9124C14.6554 5.9124 14.0976 5.35466 14.0976 4.66628Z" fill="white"/>
</svg>
