<svg width="22" height="18" viewBox="0 0 22 18" fill="none" xmlns="http://www.w3.org/2000/svg">
<path d="M6.91883 18C15.2211 18 19.7612 11.0755 19.7612 5.0712C19.7612 4.87445 19.7572 4.67855 19.7482 4.48376C20.6295 3.84243 21.3956 3.04208 22 2.131C21.1912 2.49263 20.3209 2.73644 19.4079 2.8463C20.3397 2.28391 21.0552 1.39374 21.3926 0.332755C20.5204 0.853248 19.5547 1.23179 18.5266 1.43565C17.703 0.552464 16.53 0 15.232 0C12.7391 0 10.7177 2.03505 10.7177 4.54372C10.7177 4.90039 10.7574 5.24706 10.8347 5.5798C7.08356 5.38996 3.75717 3.5817 1.53121 0.832239C1.14321 1.5036 0.919958 2.28391 0.919958 3.11607C0.919958 4.69264 1.71679 6.08426 2.92847 6.89851C2.18822 6.87556 1.49258 6.67075 0.884224 6.33001C0.883256 6.34897 0.883256 6.36802 0.883256 6.38796C0.883256 8.58884 2.43927 10.4262 4.50436 10.8428C4.12527 10.9466 3.72636 11.0026 3.31452 11.0026C3.02377 11.0026 2.74094 10.9736 2.46602 10.9207C3.04066 12.726 4.70686 14.0398 6.68264 14.0768C5.13753 15.2955 3.1915 16.0219 1.07669 16.0219C0.712539 16.0219 0.35332 16.0009 0 15.9589C1.99761 17.2477 4.36947 18 6.91883 18Z" fill="white"/>
</svg>
