<svg width="84" height="78" viewBox="0 0 84 78" fill="none" xmlns="http://www.w3.org/2000/svg">
<g opacity="0.3">
<path d="M75.2245 65.9363C72.4822 70.5819 69.7379 74.1178 65.4543 70.2675C63.2496 68.2866 63.7648 64.6949 63.3996 62.4989C62.9594 59.865 61.9693 58.6611 63.4449 56.5622C64.8822 54.5136 68.3169 55.1805 71.1568 55.169C74.1698 55.1554 76.2773 54.3238 78.5314 56.977C80.5373 59.3364 79.878 61.6073 75.2245 65.9363Z" fill="#0D96A0"/>
<path d="M52.0691 53.0903C54.4481 50.6824 64.0949 55.8568 58.9809 59.7177C55.1743 62.5875 49.7032 55.6247 52.0691 53.0903Z" fill="#0D96A0"/>
<path d="M53.9958 62.6585C56.2276 60.1177 66.0745 64.8182 61.2133 68.9641C57.5914 72.0453 51.4427 65.1716 53.9958 62.6585Z" fill="#0D96A0"/>
<path d="M56.3788 47.5479C55.1747 50.7504 63.6104 57.815 65.0266 51.4553C66.0814 46.7197 57.3127 44.178 56.3788 47.5479Z" fill="#0D96A0"/>
<path d="M67.3027 46.1637C64.9684 48.6131 69.8037 56.9504 74.3743 52.6245C77.816 49.365 69.4178 43.5524 67.3027 46.1637Z" fill="#0D96A0"/>
<path d="M29.2841 28.0322C26.5417 32.6778 23.7975 36.2137 19.5139 32.3634C17.3092 30.3825 17.8244 26.7908 17.4592 24.5948C17.019 21.9609 16.0289 20.7571 17.5044 18.6581C18.9418 16.6095 22.3765 17.2764 25.2164 17.2649C28.2294 17.2514 30.3368 16.4197 32.591 19.0729C34.5968 21.4324 33.9375 23.7032 29.2841 28.0322Z" fill="#0D96A0"/>
<path d="M6.12868 15.1862C8.50772 12.7784 18.1544 17.9528 13.0405 21.8136C9.23388 24.6834 3.76274 17.7207 6.12868 15.1862Z" fill="#0D96A0"/>
<path d="M8.05539 24.7544C10.2872 22.2136 20.1341 26.9142 15.2729 31.0601C11.651 34.1412 5.50229 27.2676 8.05539 24.7544Z" fill="#0D96A0"/>
<path d="M10.4384 9.64382C9.23429 12.8464 17.67 19.911 19.0861 13.5512C20.141 8.81567 11.3722 6.2739 10.4384 9.64382Z" fill="#0D96A0"/>
<path d="M21.3623 8.25964C19.028 10.709 23.8632 19.0463 28.4339 14.7205C31.8755 11.4609 23.4774 5.64837 21.3623 8.25964Z" fill="#0D96A0"/>
<path d="M58.5834 28.7563C53.5623 30.7287 49.2229 31.8255 48.2179 26.1542C47.7001 23.2359 50.3174 20.7227 51.3816 18.7674C52.6563 16.4209 52.6172 14.8627 55.0722 14.1171C57.4661 13.3877 59.7621 16.0278 62.0071 17.7672C64.3897 19.6115 66.5624 20.2536 66.7052 23.7322C66.8332 26.8264 64.9156 28.2099 58.5834 28.7563Z" fill="#0D96A0"/>
<path d="M48.2454 4.37764C51.6026 3.94491 56.0186 13.9615 49.6118 13.8555C44.8453 13.7733 44.8207 4.9182 48.2454 4.37764Z" fill="#0D96A0"/>
<path d="M43.8729 13.1036C47.1959 12.4755 52.0614 22.2419 45.6782 22.5161C40.9272 22.7142 40.3138 13.5121 43.8729 13.1036Z" fill="#0D96A0"/>
<path d="M55.0537 2.66337C52.1332 4.4457 54.4312 15.2062 59.4626 11.0665C63.2093 7.98428 57.8644 0.582765 55.0537 2.66337Z" fill="#0D96A0"/>
<path d="M64.5141 8.29811C61.1666 8.79113 59.8439 18.3379 66.1089 17.743C70.8277 17.2934 67.7885 7.54259 64.5141 8.29811Z" fill="#0D96A0"/>
</g>
</svg>
