<svg width="22" height="22" viewBox="0 0 22 22" fill="none" xmlns="http://www.w3.org/2000/svg">
<path d="M9.28107 22C6.72014 21.5949 4.37114 20.2784 2.66848 18.2933C0.947684 16.287 0 13.7207 0 11.067C0 8.11098 1.14423 5.33185 3.2219 3.24152C5.29958 1.1512 8.0619 0 11 0C13.9381 0 16.7004 1.1512 18.7781 3.24152C20.8558 5.33185 22 8.11098 22 11.067C22 13.7207 21.0523 16.287 19.3315 18.2933C17.6288 20.2785 15.2807 21.5946 12.7199 21.9989L12.7189 14.2662H15.2817L15.7691 11.067H12.7189V8.99081L12.719 8.9703C12.7239 8.33263 12.9632 7.26288 14.5115 7.26288H15.8981V4.53939C15.889 4.53802 14.6284 4.32313 13.4359 4.32313C10.8343 4.32313 9.28107 5.93267 9.28107 8.62866V11.067H6.48808V14.2662H9.28107V22Z" fill="white"/>
</svg>
