<svg width="69" height="64" viewBox="0 0 69 64" fill="none" xmlns="http://www.w3.org/2000/svg">
<g opacity="0.2">
<path d="M61.4894 54.308C59.2515 58.0991 57.0121 60.9846 53.5165 57.8425C51.7173 56.226 52.1377 53.295 51.8397 51.5029C51.4805 49.3535 50.6725 48.3712 51.8766 46.6583C53.0496 44.9865 55.8525 45.5307 58.17 45.5213C60.6287 45.5103 62.3485 44.8316 64.1881 46.9968C65.8249 48.9222 65.2869 50.7754 61.4894 54.308Z" fill="#0D96A0"/>
<path d="M42.5935 43.8249C44.5349 41.86 52.4071 46.0826 48.2339 49.2333C45.1275 51.5752 40.6627 45.8932 42.5935 43.8249Z" fill="#0D96A0"/>
<path d="M44.1657 51.6332C45.9869 49.5597 54.0225 53.3956 50.0555 56.7789C47.0999 59.2933 42.0822 53.684 44.1657 51.6332Z" fill="#0D96A0"/>
<path d="M46.1104 39.302C45.1278 41.9155 52.0118 47.6806 53.1675 42.4907C54.0283 38.6262 46.8725 36.552 46.1104 39.302Z" fill="#0D96A0"/>
<path d="M55.0247 38.1727C53.1198 40.1715 57.0656 46.9751 60.7955 43.445C63.604 40.7851 56.7507 36.0417 55.0247 38.1727Z" fill="#0D96A0"/>
<path d="M23.9992 23.3763C21.7613 27.1674 19.5219 30.0529 16.0262 26.9108C14.2271 25.2943 14.6475 22.3633 14.3495 20.5712C13.9903 18.4218 13.1823 17.4395 14.3864 15.7266C15.5594 14.0548 18.3622 14.599 20.6798 14.5896C23.1385 14.5786 24.8583 13.8999 26.6978 16.0651C28.3347 17.9905 27.7967 19.8437 23.9992 23.3763Z" fill="#0D96A0"/>
<path d="M5.10325 12.8932C7.04467 10.9283 14.9169 15.1509 10.7437 18.3016C7.63726 20.6435 3.17251 14.9615 5.10325 12.8932Z" fill="#0D96A0"/>
<path d="M6.67543 20.7015C8.49667 18.628 16.5323 22.4639 12.5653 25.8472C9.60965 28.3616 4.59196 22.7523 6.67543 20.7015Z" fill="#0D96A0"/>
<path d="M8.62021 8.37034C7.63761 10.9838 14.5216 16.7489 15.6772 11.559C16.538 7.69452 9.38228 5.6203 8.62021 8.37034Z" fill="#0D96A0"/>
<path d="M17.5344 7.24095C15.6295 9.23979 19.5753 16.0434 23.3052 12.5133C26.1138 9.85338 19.2605 5.11002 17.5344 7.24095Z" fill="#0D96A0"/>
<path d="M47.9091 23.9671C43.8116 25.5767 40.2704 26.4718 39.4503 21.8437C39.0277 19.4622 41.1635 17.4113 42.032 15.8157C43.0722 13.9008 43.0403 12.6292 45.0437 12.0208C46.9973 11.4255 48.871 13.58 50.703 14.9994C52.6473 16.5045 54.4203 17.0285 54.5369 19.8672C54.6414 22.3922 53.0765 23.5213 47.9091 23.9671Z" fill="#0D96A0"/>
<path d="M39.4729 4.0728C42.2125 3.71967 45.8163 11.8937 40.588 11.8072C36.6983 11.7402 36.6782 4.51393 39.4729 4.0728Z" fill="#0D96A0"/>
<path d="M35.9047 11.1938C38.6164 10.6811 42.5869 18.6511 37.3779 18.8748C33.5008 19.0365 33.0003 11.5271 35.9047 11.1938Z" fill="#0D96A0"/>
<path d="M45.0289 2.67395C42.6456 4.12842 44.5208 12.9096 48.6267 9.53139C51.6843 7.01609 47.3225 0.976062 45.0289 2.67395Z" fill="#0D96A0"/>
<path d="M52.7489 7.27219C50.0172 7.67451 48.9378 15.4652 54.0503 14.9797C57.9011 14.6128 55.4209 6.65564 52.7489 7.27219Z" fill="#0D96A0"/>
</g>
</svg>
